<?xml version="1.0" encoding="UTF-8"?>
<svg id="Capa_1" data-name="Capa 1" xmlns="http://www.w3.org/2000/svg" viewBox="0 0 418.72 379.14">
  <defs>
    <style>
      .cls-1, .cls-2 {
        fill: #fff;
      }

      .cls-1, .cls-3, .cls-4, .cls-5, .cls-6, .cls-7 {
        stroke: #263238;
        stroke-linecap: round;
        stroke-linejoin: round;
        stroke-width: 1.17px;
      }

      .cls-2 {
        isolation: isolate;
        opacity: .7;
      }

      .cls-2, .cls-8, .cls-9 {
        stroke-width: 0px;
      }

      .cls-3, .cls-9 {
        fill: #263238;
      }

      .cls-4 {
        fill: none;
      }

      .cls-8, .cls-5 {
        fill: #92e3a9;
      }

      .cls-6 {
        fill: #4c4c4c;
      }

      .cls-7 {
        fill: #ccc;
      }
    </style>
  </defs>
  <g id="freepik--background-simple--inject-17">
    <path class="cls-8" d="m16.69,202.77s2.32,72,62.43,120c60.11,48,143.41,51.43,210.84,56s119.23-33.62,127-91.32-43.72-74.64-71.68-140.33-25.43-87.28-84.58-127.68S109.01,3.85,60.5,73.04,16.69,202.77,16.69,202.77Z"/>
    <path class="cls-2" d="m16.69,202.77s2.32,72,62.43,120c60.11,48,143.41,51.43,210.84,56s119.23-33.62,127-91.32-43.72-74.64-71.68-140.33-25.43-87.28-84.58-127.68S109.01,3.85,60.5,73.04,16.69,202.77,16.69,202.77Z"/>
  </g>
  <g id="freepik--Padlock--inject-17">
    <path class="cls-4" d="m44.82,108.73v-25.77c0-18.24,15.16-33.08,33.79-33.08s33.79,14.84,33.79,33.08v25.77h13.47v-25.77c0-25.51-21.2-46.27-47.26-46.27s-47.26,20.76-47.26,46.27v25.77h13.47Z"/>
    <rect class="cls-4" x="26.35" y="108.91" width="103.18" height="85.35"/>
    <path class="cls-4" d="m88.67,144.36c-.19-6.2-5.37-11.08-11.57-10.9-5.94.18-10.72,4.96-10.9,10.9.02,4.07,2.29,7.79,5.9,9.68l-1.89,19.38h14.45l-1.89-19.38c3.61-1.89,5.88-5.61,5.9-9.68Z"/>
  </g>
  <g id="freepik--Character--inject-17">
    <polygon class="cls-3" points="221.46 197.03 195.77 195.34 195.77 194.92 192.61 195.13 189.46 194.92 189.46 195.34 163.77 197.03 144.82 352.83 163.77 352.83 191.98 228.61 193.25 228.61 221.46 352.83 240.41 352.83 221.46 197.03"/>
    <path class="cls-6" d="m144.82,352.82l-4.63,7.16-14.32,6.32c-1.54.85-2.5,2.46-2.52,4.21v5.47h40.84c.24-2.94.24-5.9,0-8.84-.42-4.21-.42-14.32-.42-14.32h-18.95Z"/>
    <path class="cls-3" d="m123.35,371.35v4.63h40.84s.19-2,.19-4.63h-41.03Z"/>
    <path class="cls-6" d="m240.33,352.82l4.63,7.16,14.32,6.32c1.54.85,2.5,2.46,2.52,4.21v5.47h-40.84c-.24-2.94-.24-5.9,0-8.84.42-4.21.42-14.32.42-14.32h18.95Z"/>
    <path class="cls-3" d="m261.82,371.35v4.63h-40.86s-.18-2-.19-4.63h41.05Z"/>
    <path class="cls-5" d="m152.89,124.55s-30,42.16-30,45.25,4.77,26.95,12.35,29.19,11.79-1.68,13.19-9.54-3.37-19.09-3.37-19.09l14-12.63-6.17-33.18Z"/>
    <path class="cls-7" d="m147.07,188.33s8.7-1.41,10.95-.85,3.93,5.9,3.93,5.9c0,0,.84,7.86-.57,9.54s-8.14,3.65-10.94,4.21-8.71-5.89-11-9.82,1.73-10.67,7.63-8.98Z"/>
    <polygon class="cls-5" points="159.2 122.64 152.89 124.55 162.83 190.9 221.91 190.9 230.9 124.93 222.87 121.87 193.23 115.37 159.2 122.64"/>
    <polygon class="cls-3" points="225.16 144.82 223.83 154.38 213.5 156.86 202.98 152.66 203.75 144.05 225.16 144.82"/>
    <circle class="cls-6" cx="214.17" cy="152.56" r="1.82"/>
    <polygon class="cls-3" points="186.92 127.61 192.47 134.11 185.39 179.23 192.85 191.09 201.65 178.66 194.19 134.3 200.5 128.18 193.81 119.58 186.92 127.61"/>
    <polygon class="cls-3" points="181.57 116.33 156.14 122.64 156.91 125.7 181.76 118.81 181.57 116.33"/>
    <polygon class="cls-3" points="202.41 115.56 227.84 121.87 227.08 124.93 202.22 118.05 202.41 115.56"/>
    <path class="cls-5" d="m227.82,121.87s9.62,2.17,15.51,5.54,7.3,10.95,3.93,19.37-13.75,7.3-18.52,5-6.18-10.66-5.34-14.31"/>
    <polygon class="cls-5" points="182.72 113.08 179.85 114.99 180.61 134.3 193.04 125.51 206.04 134.49 207.19 115.37 203.75 112.5 182.72 113.08"/>
    <path class="cls-3" d="m207.82,90.11s7.06-1.72,8.39-8.78-11.39-15.65-20.21-17.17-21.75,7.63-23.85,13.93,6.1,12.59,14.88,13.93,20.79-1.91,20.79-1.91Z"/>
    <path class="cls-7" d="m181.5,91.26s-3.82-5.92-4.77-.77,3.05,7.44,4.77,7.25,0-6.48,0-6.48Z"/>
    <path class="cls-7" d="m206.31,91.26s3.82-5.92,4.77-.77-3,7.44-4.77,7.25,0-6.48,0-6.48Z"/>
    <polygon class="cls-7" points="182.34 102.94 182.34 115.56 193.04 125.51 205.09 115.18 205.09 103.33 182.34 102.94"/>
    <path class="cls-7" d="m180.74,87.44s-.58,11.83.38,15.65,7.25,11.83,12.21,13.55,11.83-8.59,13.36-12,.95-17.94.95-17.94c0,0-2.09-5-6.29-6.48s-17.18-4.18-20.61,7.22Z"/>
    <path class="cls-9" d="m188.67,93.72c0,.9-.41,1.63-.92,1.63s-.92-.73-.92-1.63.41-1.63.92-1.63.92.73.92,1.63Z"/>
    <path class="cls-9" d="m200.38,93.72c0,.9-.41,1.63-.92,1.63s-.92-.73-.92-1.63.41-1.63.92-1.63.92.73.92,1.63Z"/>
    <path class="cls-7" d="m190.66,98.28c-.69-.16-1.38.26-1.54.95-.16.69.26,1.38.95,1.54.2.05.4.05.59,0,.4,0,.79-.12,1.11-.37,1.15,1.35,3.17,1.51,4.52.37.1-.09.2-.18.3-.29.3.19.65.29,1,.29.69.16,1.38-.26,1.54-.95.16-.69-.26-1.38-.95-1.54-.2-.05-.4-.05-.59,0"/>
    <line class="cls-4" x1="192.18" y1="106.11" x2="196.17" y2="106.11"/>
    <path class="cls-3" d="m180.3,90.31s.14,3.84,1.42,2.84,1.7-7.52.57-8.37-1.99,3.55-1.99,5.53Z"/>
    <path class="cls-3" d="m204.93,90.31s.15,3.84,1.42,2.84,1.71-7.52.57-8.37-1.99,3.55-1.99,5.53Z"/>
    <path class="cls-6" d="m180.3,87.19s.43.35.42.52c1.85,1,6.1,2.84,13,3.21,4.89.17,9.74-1.02,14-3.43v-.82c-.17-4.47-3.49-7.45-7.6-8.59-4.04-1.11-8.33-.9-12.24.61-1.98.75-3.73,2.01-5.07,3.65-.51.56-3.21,4.29-2.51,4.85Z"/>
    <path class="cls-6" d="m180.74,87.44c4.26.94,8.64,1.26,13,.95,8.21-.38,13.92-.95,13.92-.95-3.77,3.54-8.64,5.68-13.8,6.06-5.12.33-10.06-1.95-13.12-6.06Z"/>
    <polygon class="cls-3" points="159.78 144.82 161.11 154.38 171.44 156.86 181.95 152.66 181.19 144.05 159.78 144.82"/>
    <circle class="cls-6" cx="170.77" cy="152.56" r="1.82"/>
    <rect class="cls-6" x="161.95" y="190.29" width="60.63" height="9.54"/>
    <rect class="cls-6" x="157.74" y="190.85" width="18.53" height="11.79" rx="2.67" ry="2.67"/>
    <rect class="cls-6" x="206.02" y="190.85" width="18.53" height="11.79" rx="2.67" ry="2.67"/>
    <rect class="cls-1" x="186.65" y="190.85" width="13.19" height="8.42"/>
    <path class="cls-4" d="m145.1,170.36s-8.42-.56-11.51-5.9"/>
    <ellipse class="cls-5" cx="238.72" cy="131.06" rx="13.9" ry="14.6"/>
    <ellipse class="cls-5" cx="238.72" cy="123.67" rx="10.88" ry="9.75"/>
    <ellipse class="cls-7" cx="238.72" cy="116.5" rx="10.88" ry="9.75"/>
    <path class="cls-7" d="m221.24,95.48s.19,14.38.92,18.62,3.69,9.77,7.75,9.77c2.7-.07,5.38-.56,7.93-1.47,0,0,4.79,2.58,9.4,1.84,4.61-.74,3.87-7.19,3.87-10s-.55-23.6-.55-23.6c0,0,.37-2-1.48-2.39-.91-.2-1.83-.33-2.76-.37v-4.43c-.69-1.03-1.9-1.6-3.14-1.47-2.39,0-2.58.55-2.58.55v-4.06s-2-3.23-4.61-1.66c-1.07.61-1.76,1.72-1.84,2.95l-.19,3.88s-4.42-1.66-4.79.92-1.11,18.48-1.11,18.48c-.26-2.5-.75-4.97-1.47-7.38-.92-2.4-5.35-2.4-5.35-.18Z"/>
    <line class="cls-4" x1="233.96" y1="83.68" x2="234.33" y2="100.64"/>
    <line class="cls-4" x1="240.6" y1="82.57" x2="240.79" y2="100.82"/>
    <line class="cls-4" x1="246.32" y1="87.92" x2="245.95" y2="100.64"/>
    <line class="cls-4" x1="231.57" y1="100.46" x2="248.35" y2="101.19"/>
    <path class="cls-4" d="m228.06,103.04c.01,1.41.68,2.74,1.81,3.58,1.82,1.14,5.92,4.1,6.37,8.88"/>
  </g>
  <g id="freepik--Text--inject-17">
    <path class="cls-9" d="m311.21,57.85v2.19h-5.33v7.76h6.55v2.24h-9v-21.8h9v2.21h-6.55v7.44l5.33-.04Z"/>
    <path class="cls-9" d="m319.51,48.2c3.42,0,4.86,1.74,4.86,5v1.78c0,2.4-.84,3.89-2.71,4.48,2,.59,2.74,2.21,2.74,4.55v3.4c-.07.89.08,1.79.43,2.61h-2.46c-.34-.84-.48-1.74-.4-2.64v-3.43c0-2.46-1.15-3.24-3.18-3.24h-1.71v9.33h-2.43v-21.8l4.86-.04Zm-.63,10.28c1.94,0,3.09-.63,3.09-3v-2.09c0-2-.72-3-2.52-3h-2.37v8.07l1.8.02Z"/>
    <path class="cls-9" d="m331.78,48.2c3.43,0,4.86,1.74,4.86,5v1.78c0,2.4-.84,3.89-2.71,4.48,2,.59,2.74,2.21,2.74,4.55v3.4c-.07.89.08,1.79.44,2.61h-2.46c-.35-.83-.49-1.74-.41-2.64v-3.43c0-2.46-1.15-3.24-3.18-3.24h-1.71v9.33h-2.43v-21.8l4.86-.04Zm-.57,10.28c1.93,0,3.08-.63,3.08-3v-2.09c0-2-.71-3-2.52-3h-2.37v8.07l1.81.02Z"/>
    <path class="cls-9" d="m339.01,53.46c0-3.33,1.65-5.48,5-5.48s5,2.15,5,5.48v11.28c0,3.3-1.65,5.48-5,5.48s-5-2.18-5-5.48v-11.28Zm2.4,11.4c0,2,.84,3.15,2.58,3.15s2.59-1.15,2.59-3.15v-11.52c0-2-.81-3.15-2.59-3.15s-2.58,1.18-2.58,3.15v11.52Z"/>
    <path class="cls-9" d="m356.21,48.2c3.43,0,4.86,1.74,4.86,5v1.78c0,2.4-.84,3.89-2.71,4.48,2,.59,2.74,2.21,2.74,4.55v3.4c-.07.89.08,1.79.44,2.61h-2.46c-.35-.83-.49-1.74-.41-2.64v-3.43c0-2.46-1.15-3.24-3.18-3.24h-1.71v9.33h-2.47v-21.8l4.9-.04Zm-.62,10.28c1.93,0,3.08-.63,3.08-3v-2.09c0-2-.71-3-2.52-3h-2.37v8.07l1.81.02Z"/>
    <path class="cls-9" d="m290.59,193.92v2.21h-5v9.44h-2.43v-21.8h8.66v2.21h-6.23v7.94h5Z"/>
    <path class="cls-9" d="m293.54,189.04c0-3.33,1.66-5.48,5-5.48s5,2.15,5,5.48v11.28c0,3.3-1.65,5.48-5,5.48s-5-2.18-5-5.48v-11.28Zm2.4,11.4c0,2,.84,3.15,2.59,3.15s2.58-1.15,2.58-3.15v-11.53c0-2-.81-3.15-2.58-3.15s-2.59,1.18-2.59,3.15v11.53Z"/>
    <path class="cls-9" d="m310.71,183.77c3.42,0,4.86,1.74,4.86,5v1.78c0,2.4-.84,3.89-2.71,4.48,2,.59,2.74,2.21,2.74,4.55v3.4c-.07.89.08,1.79.44,2.61h-2.46c-.35-.83-.49-1.74-.41-2.64v-3.43c0-2.46-1.15-3.24-3.18-3.24h-1.71v9.31h-2.43v-21.8l4.86-.02Zm-.62,10.27c1.93,0,3.08-.63,3.08-3v-2.09c0-2-.72-3-2.52-3h-2.37v8.09h1.81Z"/>
    <path class="cls-9" d="m323.01,183.77c3.4,0,4.74,1.62,4.74,4.83v1c0,2.31-.66,3.74-2.56,4.33,2.12.6,2.93,2.28,2.93,4.68v1.83c0,3.28-1.59,5.11-5,5.11h-5v-21.8l4.89.02Zm-.59,9.25c1.93,0,2.93-.62,2.93-2.9v-1.28c0-1.93-.66-2.86-2.4-2.86h-2.4v7l1.87.04Zm.72,10.34c1.77,0,2.58-.93,2.58-3v-1.93c0-2.43-1-3.24-3.05-3.24h-2.12v8.13l2.59.04Z"/>
    <path class="cls-9" d="m332.76,183.77v21.8h-2.43v-21.8h2.43Z"/>
    <path class="cls-9" d="m340.36,183.77c3.4,0,5,2,5,5.42v11c0,3.34-1.56,5.39-5,5.39h-5.1v-21.8h5.1Zm0,19.59c1.75,0,2.59-1.09,2.59-3.08v-11.24c0-2-.84-3.08-2.62-3.08h-2.62v17.38l2.65.02Z"/>
    <path class="cls-9" d="m352.7,183.77c3.39,0,4.95,2,4.95,5.42v11c0,3.34-1.56,5.39-4.95,5.39h-5.11v-21.8h5.11Zm0,19.59c1.74,0,2.58-1.09,2.58-3.08v-11.24c0-2-.84-3.08-2.61-3.08h-2.62v17.38l2.65.02Z"/>
    <path class="cls-9" d="m367.68,193.42v2.18h-5.33v7.76h6.55v2.21h-9v-21.8h9v2.21h-6.55v7.44h5.33Z"/>
    <path class="cls-9" d="m373.29,205.57h-2.18v-21.8h3.1l5,15.76v-15.76h2.15v21.8h-2.53l-5.57-17.63.03,17.63Z"/>
    <path class="cls-9" d="m267.75,137.3l22.25-52.61h13.35v52.61h5.78v11.12h-5.78v14.12h-12v-14.12h-23.6v-11.12Zm23.58,0v-29.26l-12.34,29.25h12.34Z"/>
    <path class="cls-9" d="m313.69,103.37c0-12.45,6.56-19.57,18.57-19.57s18.58,7.12,18.58,19.57v40.49c0,12.46-6.57,19.57-18.58,19.57s-18.57-7.11-18.57-19.57v-40.49Zm12.23,41.27c0,5.56,2.45,7.67,6.34,7.67s6.34-2.11,6.34-7.67v-42c0-5.57-2.44-7.68-6.34-7.68s-6.34,2.11-6.34,7.68v42Z"/>
    <path class="cls-9" d="m382.31,103.82c0-7-2.44-8.9-6.34-8.9s-6.34,2.11-6.34,7.68v5h-11.56v-4.23c0-12.45,6.22-19.57,18.24-19.57s18.24,7.12,18.24,19.57v2c0,8.34-2.67,13.57-8.57,16,6.12,2.67,8.57,8.45,8.57,16.35v6.12c0,12.46-6.23,19.57-18.24,19.57s-18.24-7.11-18.24-19.57v-6.45h11.56v7.23c0,5.56,2.45,7.67,6.34,7.67s6.34-1.89,6.34-8.78v-6.12c0-7.23-2.44-9.9-8-9.9h-4.1v-11.1h4.78c4.56,0,7.34-2,7.34-8.23l-.02-4.34Z"/>
  </g>
  <g id="freepik--Floor--inject-17">
    <line class="cls-4" x1="411.22" y1="375.54" x2="418.13" y2="375.54"/>
    <line class="cls-4" x1=".58" y1="375.54" x2="401.57" y2="375.54"/>
  </g>
</svg>