<svg xmlns="http://www.w3.org/2000/svg" xmlns:xlink="http://www.w3.org/1999/xlink" viewBox="0 0 500 400"><defs><style>.cls-1{fill:#296af8;}.cls-2,.cls-4,.cls-5{stroke:#f6f6f6;}.cls-2,.cls-3,.cls-4,.cls-5,.cls-6,.cls-7,.cls-8{stroke-miterlimit:10;}.cls-2,.cls-3{stroke-width:4px;}.cls-2{fill:url(#Degradado_sin_nombre_23);}.cls-3{stroke:#fff;fill:url(#Degradado_sin_nombre_23-2);}.cls-4,.cls-5{stroke-width:3px;}.cls-4{fill:url(#Degradado_sin_nombre_23-3);}.cls-5{fill:url(#Degradado_sin_nombre_23-4);}.cls-6,.cls-7,.cls-8{fill:none;stroke:#0018c7;}.cls-6{stroke-width:38px;}.cls-7{stroke-width:23px;}.cls-8{stroke-width:17px;}</style><linearGradient id="Degradado_sin_nombre_23" x1="76.66" y1="306.31" x2="226.95" y2="306.31" gradientTransform="translate(36.22 -14.89) rotate(6.77)" gradientUnits="userSpaceOnUse"><stop offset="0" stop-color="#0039dd"/><stop offset="0.83" stop-color="#06f"/></linearGradient><linearGradient id="Degradado_sin_nombre_23-2" x1="116.84" y1="135.44" x2="314.55" y2="135.44" gradientTransform="matrix(1, 0, 0, 1, 0, 0)" xlink:href="#Degradado_sin_nombre_23"/><linearGradient id="Degradado_sin_nombre_23-3" x1="297.19" y1="203.13" x2="428.37" y2="203.13" gradientTransform="translate(64.09 -92.94) rotate(15.87)" xlink:href="#Degradado_sin_nombre_23"/><linearGradient id="Degradado_sin_nombre_23-4" x1="249.79" y1="301.28" x2="341.54" y2="301.28" gradientTransform="translate(-76.31 30.04) rotate(-9.92)" xlink:href="#Degradado_sin_nombre_23"/></defs><g id="Capa_2" data-name="Capa 2"><g id="Capa_1-2" data-name="Capa 1"><rect class="cls-1" width="500" height="400"/><path class="cls-2" d="M84.68,259.36c-2,.67-3.78,1.27-3.88,1.25-.94.29,3.65,14.23,6.76,20.24,13,25.61,34.31,46.07,60.91,58.69,13.35,6.32,23.68,9.16,40.68,11.07,11.22,1.34,15.64,2.26,18,3.65a9.43,9.43,0,0,0,14.64-7.12c1-8.24-9.1-13.27-15.7-7.71-2.69,2.3-3.93,2.56-11.05,2.32-23.26-.85-52-13-71.9-30.49-13.69-12-27.64-32.69-31.54-46.55-.81-3.32-2-6.07-2.38-6.22S86.67,258.69,84.68,259.36Z"/><path class="cls-3" d="M314.08,122.86a17.64,17.64,0,0,0-5.09-9.24c-3-2.9-5.17-3.93-10.39-5-8.57-1.79-10.71-3-13-7.59-.71-1.38-2.5-4.46-3.93-6.78-2.81-4.42-4.1-7.5-4.1-9.77a40.51,40.51,0,0,1,1.83-6.92c1.43-4.37,1.78-6.24,1.83-8.79A16.52,16.52,0,0,0,275.62,56c-1.83-1.74-19.45-12-22.4-13A20.31,20.31,0,0,0,242,43c-3.52,1.25-5.62,2.9-9.64,7.5-4.81,5.58-6.42,6.38-12.49,6.38h-5.26l-.45,0-.46,0H211.5c-6.07,0-7.67-.8-12.49-6.38-4-4.6-6.11-6.25-9.64-7.5a20.31,20.31,0,0,0-11.2,0c-2.94,1-20.57,11.29-22.4,13a16.54,16.54,0,0,0-5.57,12.8c0,2.55.4,4.42,1.83,8.79a41.39,41.39,0,0,1,1.82,6.92c0,2.28-1.29,5.35-4.1,9.77-1.43,2.32-3.21,5.4-3.93,6.78-2.32,4.55-4.46,5.8-13,7.59-5.22,1-7.36,2-10.39,5a17.64,17.64,0,0,0-5.09,9.24c-.62,3.08-.62,22.08,0,25.16a17.64,17.64,0,0,0,5.09,9.24c3.17,3,5.26,4,11.42,5.22,8.39,1.69,10,2.9,13.61,10.13a79.34,79.34,0,0,0,4,6.91c3,4.42,3.07,6.43.35,14.46-2.94,8.75-1.83,15.22,3.66,20.57,2.1,2,19.5,12.23,22.94,13.39a14.51,14.51,0,0,0,6.24.66c6.16-.31,8.21-1.56,15.75-9.68,4-4.24,5.54-4.91,11.11-4.95h8.39c5.58,0,7.14.71,11.11,4.95,7.54,8.12,9.59,9.37,15.75,9.68a14.39,14.39,0,0,0,6.25-.67c3.43-1.16,20.84-11.33,22.93-13.38,5.49-5.36,6.61-11.83,3.66-20.57-2.72-8-2.68-10,.36-14.46,1.07-1.56,2.85-4.68,4-6.91,3.62-7.23,5.22-8.44,13.61-10.13,6.16-1.25,8.26-2.23,11.42-5.22a17.68,17.68,0,0,0,5.09-9.24C314.71,144.94,314.71,125.93,314.08,122.86Z"/><path class="cls-4" d="M421,204.63c-1.41-2.4-2.59-3.44-5.73-5-5.15-2.7-6.29-3.88-6.94-7.21-.21-1-.79-3.3-1.28-5-1-3.33-1.26-5.53-.85-7a26.8,26.8,0,0,1,2.43-4.08,18,18,0,0,0,2.76-5.28,11,11,0,0,0-1.24-9.19c-.85-1.44-10.24-11.19-11.93-12.38a13.55,13.55,0,0,0-7.16-2c-2.47.16-4.11.83-7.51,3-4.09,2.68-5.26,2.9-9.13,1.8l-2.79-.79h0l-.14,0a5.31,5.31,0,0,1-1.11-.31l-1.31-.38c-3.88-1.1-4.76-1.9-6.82-6.34-1.73-3.66-2.77-5.09-4.79-6.53a13.57,13.57,0,0,0-7.14-2.06c-2.07.12-15.18,3.48-16.66,4.25a11,11,0,0,0-5.88,7.17,17.48,17.48,0,0,0-.43,5.94,26.57,26.57,0,0,1-.09,4.74c-.41,1.46-1.79,3.19-4.39,5.5-1.33,1.22-3,2.86-3.74,3.61-2.3,2.49-3.9,2.89-9.69,2.48-3.52-.29-5.07,0-7.53,1.27a11.76,11.76,0,0,0-4.92,5c-1,1.85-4.41,14-4.57,16.06a11.81,11.81,0,0,0,1.57,6.82c1.48,2.48,2.64,3.49,6.35,5.4,5,2.6,5.85,3.66,6.84,8.93.34,1.64.91,4,1.31,5.15,1.14,3.37.8,4.66-2.39,9.29-3.47,5.05-3.93,9.38-1.4,13.79,1,1.69,10.23,11.34,12.21,12.7a9.45,9.45,0,0,0,3.87,1.56c4,.92,5.52.5,11.81-3.32,3.3-2,4.42-2.13,8-1.14l2.79.79h0l.57.16h0l2,.57c3.55,1,4.43,1.75,6.19,5.17,3.34,6.55,4.43,7.72,8.3,9a9.59,9.59,0,0,0,4.11.71c2.4-.12,15.35-3.46,17.06-4.39,4.48-2.42,6.36-6.35,6.07-12.46-.28-5.62.11-6.9,2.85-9.16,1-.81,2.67-2.48,3.82-3.69,3.62-4,4.86-4.44,10.52-4,4.16.32,5.67.08,8.24-1.26a11.68,11.68,0,0,0,4.92-5c1-1.85,4.41-14,4.57-16.06A11.74,11.74,0,0,0,421,204.63Z"/><path class="cls-5" d="M310.83,262.24a8.24,8.24,0,0,0-3.07-3.82,8,8,0,0,0-5.15-1.43c-4.05-.13-5.13-.53-6.56-2.42-.43-.58-1.5-1.84-2.34-2.79-1.63-1.8-2.47-3.1-2.65-4.14a18.9,18.9,0,0,1,.28-3.31,12.26,12.26,0,0,0,.13-4.16,7.69,7.69,0,0,0-3.57-5.41,87.72,87.72,0,0,0-11.28-4.16,9.52,9.52,0,0,0-5.12.91c-1.51.86-2.33,1.78-3.8,4.2-1.76,2.94-2.43,3.43-5.2,3.92l-2,.35h0l-.11,0a5.27,5.27,0,0,1-1.23.21l-.5.09c-2.77.48-3.57.25-6.22-1.92-2.2-1.78-3.29-2.37-5-2.65a9.44,9.44,0,0,0-5.13.87,88.74,88.74,0,0,0-9.19,7.75,7.66,7.66,0,0,0-1.53,6.3,12.68,12.68,0,0,0,1.54,3.87,18.94,18.94,0,0,1,1.39,3c.18,1-.16,2.55-1.09,4.8-.47,1.17-1,2.72-1.26,3.41-.69,2.27-1.57,3-5.34,4.51a8,8,0,0,0-4.36,3.1,8.2,8.2,0,0,0-1.59,4.63,77.55,77.55,0,0,0,2,11.5,8.09,8.09,0,0,0,3.06,3.81c1.69,1.12,2.72,1.4,5.64,1.48,4,.1,4.8.52,7,3.54a36.84,36.84,0,0,0,2.39,2.84c1.74,1.77,1.92,2.69,1.32,6.58-.65,4.23.38,7.1,3.31,9.11a75.51,75.51,0,0,0,11.56,4.28,6.87,6.87,0,0,0,2.91-.19c2.79-.64,3.63-1.37,6.42-5.69,1.48-2.25,2.14-2.68,4.68-3.15l2-.35h0l.41-.07h0l1.43-.25c2.55-.43,3.32-.25,5.47,1.37,4.1,3.11,5.14,3.52,8,3.17a6.65,6.65,0,0,0,2.8-.81,74.26,74.26,0,0,0,9.41-7.95c2.08-2.89,2.07-5.93,0-9.69-1.89-3.46-2-4.38-1-6.64.36-.8.93-2.37,1.28-3.48,1.07-3.6,1.71-4.28,5.41-5.72,2.71-1.06,3.59-1.68,4.8-3.3a8.25,8.25,0,0,0,1.59-4.63A78.38,78.38,0,0,0,310.83,262.24Z"/><circle class="cls-6" cx="215.7" cy="135.44" r="40.24"/><circle class="cls-7" cx="357.52" cy="201.63" r="24.99"/><circle class="cls-8" cx="266.86" cy="275.87" r="13.82"/></g></g></svg>