<svg xmlns="http://www.w3.org/2000/svg" viewBox="0 0 500 400"><defs><style>.cls-1{fill:#068226;}.cls-2{fill:#f6f6f6;}.cls-3,.cls-4,.cls-5,.cls-6{fill:none;stroke-miterlimit:10;}.cls-3,.cls-4,.cls-5{stroke:#0e8337;}.cls-3{stroke-width:3px;}.cls-4{stroke-width:2px;}.cls-5{stroke-width:4px;}.cls-6{stroke:#f6f6f6;stroke-width:10px;}</style></defs><g id="Capa_2" data-name="Capa 2"><g id="Capa_5" data-name="Capa 5"><rect class="cls-1" width="500" height="400"/><path class="cls-2" d="M387.69,101.48H112.31a3.31,3.31,0,0,0-3.31,3.31V272.6a3.31,3.31,0,0,0,3.31,3.31H387.69A3.32,3.32,0,0,0,391,272.6V104.79a3.32,3.32,0,0,0-3.31-3.31Zm-3.31,167.81H115.62V108.1H384.38Z"/><path class="cls-2" d="M391.36,86.59H108.64a14.55,14.55,0,0,0-14.53,14.53V276.27a14.55,14.55,0,0,0,14.53,14.53h98.19l-5.23,12.68h-21a5,5,0,0,0,0,9.93H319.44a5,5,0,0,0,0-9.93h-21l-5.23-12.68h98.19a14.54,14.54,0,0,0,14.53-14.53V101.12a14.55,14.55,0,0,0-14.53-14.53ZM287.66,303.48H212.34l5.23-12.68h64.85ZM396,276.27a4.6,4.6,0,0,1-4.6,4.6H108.64a4.6,4.6,0,0,1-4.6-4.6V101.12a4.6,4.6,0,0,1,4.6-4.6H391.36a4.6,4.6,0,0,1,4.6,4.6Z"/><path class="cls-2" d="M290.69,249.89h40.82a9.76,9.76,0,0,0,9.76-9.76V183.37a9.77,9.77,0,0,0-3.77-7.71l-18.67-14.52a9.77,9.77,0,0,0-6-2.06H290.69"/><path class="cls-3" d="M312.84,159.08V169a15.24,15.24,0,0,0,15.24,15.24h13.19"/><rect class="cls-4" x="284.41" y="214.73" width="42.65" height="26.08" rx="4.36"/><line class="cls-4" x1="284.41" y1="207.54" x2="327.05" y2="207.54"/><line class="cls-4" x1="284.41" y1="200.86" x2="327.05" y2="200.86"/><line class="cls-4" x1="284.41" y1="195.02" x2="327.05" y2="195.02"/><line class="cls-4" x1="284.41" y1="187.72" x2="307.64" y2="187.72"/><path class="cls-2" d="M243.83,118.7H196a15.05,15.05,0,0,0-15,15V243.64a15.05,15.05,0,0,0,15,15.05h76.63a15.05,15.05,0,0,0,15.05-15.05v-87.5a15,15,0,0,0-5.81-11.88l-28.78-22.39A15.09,15.09,0,0,0,243.83,118.7Z"/><path class="cls-5" d="M243.83,118.7V134a23.5,23.5,0,0,0,23.49,23.5h20.34"/><rect class="cls-3" x="200" y="204.49" width="65.74" height="40.2" rx="4.36"/><line class="cls-3" x1="200" y1="193.39" x2="265.74" y2="193.39"/><line class="cls-3" x1="200" y1="183.09" x2="265.74" y2="183.09"/><line class="cls-3" x1="200" y1="174.1" x2="265.74" y2="174.1"/><line class="cls-3" x1="200" y1="162.85" x2="235.81" y2="162.85"/><path class="cls-6" d="M321.35,372.8c43.88,7.9,93.68-8.14,117.22-47.83"/><path class="cls-2" d="M460.65,284.3s-5.66,11.1-18.31,14.89c-15.59,4.67-38.85,19.31-37.93,47.2,0,0,27.06-22.16,29.37-21.27s-16.25,27.14-22.18,30.68S451.71,360.58,460.65,284.3Z"/></g></g></svg>