<svg xmlns="http://www.w3.org/2000/svg" viewBox="0 0 500 400"><defs><style>.cls-1{fill:#003dc7;}.cls-2,.cls-4{fill:#f6f6f6;}.cls-2,.cls-3,.cls-9{stroke:#f6f6f6;}.cls-2,.cls-3,.cls-5,.cls-6,.cls-7,.cls-8,.cls-9{stroke-miterlimit:10;}.cls-3,.cls-5,.cls-6,.cls-7,.cls-8,.cls-9{fill:none;}.cls-3{stroke-width:6px;}.cls-5,.cls-6,.cls-7,.cls-8{stroke:#003dc7;}.cls-5{stroke-width:1.3px;}.cls-7{stroke-width:0.75px;}.cls-8{stroke-width:2px;}.cls-9{stroke-width:10px;}</style></defs><g id="Capa_2" data-name="Capa 2"><g id="Capa_4" data-name="Capa 4"><rect class="cls-1" width="500" height="400"/><path class="cls-2" d="M265.78,189.65H104.54a8.29,8.29,0,0,0-8.29,8.28v99.89a8.3,8.3,0,0,0,8.29,8.29h56l-3,7.23h-12a2.83,2.83,0,0,0,0,5.66h79.2a2.83,2.83,0,0,0,0-5.66h-12l-3-7.23h56a8.29,8.29,0,0,0,8.28-8.29V197.93a8.28,8.28,0,0,0-8.28-8.28ZM206.64,313.34h-43l3-7.23h37Zm61.76-15.52a2.62,2.62,0,0,1-2.62,2.62H104.54a2.62,2.62,0,0,1-2.62-2.62V197.93a2.62,2.62,0,0,1,2.62-2.62H265.78a2.63,2.63,0,0,1,2.62,2.62Z"/><path class="cls-3" d="M455.33,289.64l-13.44-49.1a8,8,0,0,0-7.75-5.91H336.86a8,8,0,0,0-7.75,10.17l13.42,48.7a8,8,0,0,0,7.72,5.9l97.29.4A8,8,0,0,0,455.33,289.64Z"/><path class="cls-3" d="M455.33,289.64V205.93a10,10,0,0,0-10-10H430.73a10,10,0,0,0-10,10h0a10,10,0,0,1-10,10H351.15a10,10,0,0,0-10,10v8.74"/><path class="cls-4" d="M149.83,218.91H124.64a7.93,7.93,0,0,0-7.92,7.92v57.84a7.93,7.93,0,0,0,7.92,7.92H165a7.93,7.93,0,0,0,7.93-7.92V238.62a7.93,7.93,0,0,0-3.06-6.26l-15.15-11.78A7.92,7.92,0,0,0,149.83,218.91Z"/><path class="cls-5" d="M149.83,218.91v8a12.36,12.36,0,0,0,12.36,12.36H172.9"/><rect class="cls-6" x="126.76" y="264.06" width="34.6" height="21.16" rx="2.83"/><line class="cls-6" x1="126.76" y1="258.22" x2="161.36" y2="258.22"/><line class="cls-6" x1="126.76" y1="252.8" x2="161.36" y2="252.8"/><line class="cls-6" x1="126.76" y1="248.07" x2="161.36" y2="248.07"/><line class="cls-6" x1="126.76" y1="242.15" x2="145.61" y2="242.15"/><path class="cls-4" d="M226.33,209.32H210.64a4.94,4.94,0,0,0-4.94,4.93v36a4.94,4.94,0,0,0,4.94,4.93h25.12a4.94,4.94,0,0,0,4.94-4.93V221.59a4.93,4.93,0,0,0-1.91-3.89l-9.43-7.34A4.92,4.92,0,0,0,226.33,209.32Z"/><path class="cls-6" d="M226.33,209.32v5A7.7,7.7,0,0,0,234,222h6.67"/><rect class="cls-7" x="211.96" y="237.44" width="21.55" height="13.18" rx="2.53"/><line class="cls-7" x1="211.96" y1="233.8" x2="233.51" y2="233.8"/><line class="cls-7" x1="211.96" y1="230.43" x2="233.51" y2="230.43"/><line class="cls-7" x1="211.96" y1="227.48" x2="233.51" y2="227.48"/><line class="cls-7" x1="211.96" y1="223.79" x2="223.7" y2="223.79"/><path class="cls-4" d="M240.45,104.56l-28.73-8.41A9.41,9.41,0,0,0,200,102.54l-19.32,66a9.41,9.41,0,0,0,6.39,11.69l46,13.47a9.41,9.41,0,0,0,11.68-6.39l15.39-52.54a9.42,9.42,0,0,0-1.4-8.15l-13.35-18.51A9.4,9.4,0,0,0,240.45,104.56Z"/><path class="cls-8" d="M240.45,104.56l-2.69,9.17a14.71,14.71,0,0,0,10,18.24L260,135.55"/><rect class="cls-6" x="194.69" y="153.64" width="41.13" height="25.15" rx="4.36" transform="translate(55.38 -53.79) rotate(16.32)"/><line class="cls-6" x1="201" y1="141.71" x2="240.48" y2="153.27"/><line class="cls-6" x1="202.81" y1="135.52" x2="242.29" y2="147.08"/><line class="cls-6" x1="204.39" y1="130.12" x2="243.87" y2="141.68"/><line class="cls-6" x1="206.37" y1="123.37" x2="227.87" y2="129.66"/><path class="cls-4" d="M317.37,111.33,290.79,97.57a9.43,9.43,0,0,0-12.7,4l-31.58,61.07a9.41,9.41,0,0,0,4,12.69l42.58,22a9.43,9.43,0,0,0,12.7-4L331,144.73a9.45,9.45,0,0,0,.19-8.27l-9.56-20.71A9.44,9.44,0,0,0,317.37,111.33Z"/><path class="cls-8" d="M317.37,111.33,313,119.82a14.68,14.68,0,0,0,6.31,19.8l11.3,5.85"/><rect class="cls-6" x="260.28" y="154.45" width="41.13" height="25.15" rx="4.36" transform="translate(108.14 -110.36) rotate(27.35)"/><line class="cls-6" x1="271.55" y1="140.24" x2="308.08" y2="159.14"/><line class="cls-6" x1="274.51" y1="134.51" x2="311.04" y2="153.41"/><line class="cls-6" x1="277.09" y1="129.51" x2="313.63" y2="148.41"/><line class="cls-6" x1="280.33" y1="123.26" x2="300.23" y2="133.56"/><path class="cls-4" d="M387.05,151.83l-21.84-20.47a9.41,9.41,0,0,0-13.31.43l-47,50.16a9.41,9.41,0,0,0,.43,13.31l35,32.79a9.43,9.43,0,0,0,13.31-.43L391,187.68a9.43,9.43,0,0,0,2.44-7.91l-3.56-22.54A9.47,9.47,0,0,0,387.05,151.83Z"/><path class="cls-8" d="M387.05,151.83l-6.54,7a14.71,14.71,0,0,0,.67,20.78l9.29,8.7"/><rect class="cls-6" x="316.17" y="182.9" width="41.13" height="25.15" rx="4.36" transform="translate(224.76 -177.43) rotate(43.15)"/><line class="cls-6" x1="335.08" y1="167.17" x2="365.09" y2="195.3"/><line class="cls-6" x1="339.49" y1="162.47" x2="369.5" y2="190.6"/><line class="cls-6" x1="343.34" y1="158.37" x2="373.35" y2="186.5"/><line class="cls-6" x1="348.15" y1="153.23" x2="364.49" y2="168.55"/><path class="cls-9" d="M52.61,135.55c6.63-38.3,34.63-74.3,74.16-81.73"/><path class="cls-4" d="M166.67,47.88S155.88,49.21,149,58.43c-8.47,11.37-27.4,26.06-50,17,0,0,26.23-15.55,26.19-17.71s-27.08,5.21-31.75,9S101.53,32.44,166.67,47.88Z"/></g></g></svg>