<svg xmlns="http://www.w3.org/2000/svg" viewBox="0 0 500 400"><defs><style>.cls-1,.cls-3{fill:#00c0a3;}.cls-2{fill:none;stroke-width:6px;}.cls-2,.cls-3{stroke:#f6f6f6;stroke-miterlimit:10;}.cls-3{stroke-width:4px;}</style></defs><g id="Capa_2" data-name="Capa 2"><g id="Capa_3" data-name="Capa 3"><rect class="cls-1" width="500" height="400"/><path class="cls-2" d="M280.13,134.09a71.67,71.67,0,0,0-40.06,59.56H384.7A72.15,72.15,0,0,0,345,134.37c-1.94,2-14,14.14-33.08,13.81C293.49,147.86,282.13,136.22,280.13,134.09Z"/><circle class="cls-2" cx="312.73" cy="109.99" r="35.07"/><path class="cls-2" d="M137.3,334.56a36,36,0,0,0-20.13,29.91h72.66a36.46,36.46,0,0,0-4.92-15.76,36.87,36.87,0,0,0-15-14,22.45,22.45,0,0,1-32.58-.14Z"/><circle class="cls-2" cx="153.67" cy="321.94" r="17.62"/><path class="cls-2" d="M140.73,188.79A45.51,45.51,0,0,0,115.3,226.6h91.82A45.77,45.77,0,0,0,181.91,189a28.37,28.37,0,0,1-41.18-.18Z"/><circle class="cls-2" cx="161.43" cy="172.85" r="22.27"/><path class="cls-2" d="M235.24,256.93a57,57,0,0,0-31.88,47.39H318.47a57.43,57.43,0,0,0-31.6-47.17c-1.55,1.61-11.12,11.25-26.34,11A36.41,36.41,0,0,1,235.24,256.93Z"/><circle class="cls-2" cx="261.19" cy="236.95" r="27.91"/><path class="cls-2" d="M311.42,277.27s39.25-37.26,33.06-80.65"/><path class="cls-2" d="M299.17,266.05s31.49-33.91,26.53-73.4"/><path class="cls-2" d="M151.49,226.6s3.65,49.39,55,62.54"/><path class="cls-2" d="M165.16,225.12s.23,38.65,49.11,53.15"/><path class="cls-2" d="M179.7,341.82s40.9,3.72,59.05-37.5"/><path class="cls-2" d="M186.37,353.66s50.13-2.16,66.83-48.31"/><path class="cls-3" d="M290.2,33.23c-.54-2-1-3.84-1.1-3.92-.27-.94,13.88-4.81,20.61-5.54,28.51-3.32,57.35,3.17,82.56,18.38C404.91,49.79,413,56.84,424,70c7.31,8.62,10.52,11.8,13,13a9.43,9.43,0,0,1,2.15,16.14c-6.34,5.37-16.09-.26-15.1-8.83.43-3.52,0-4.69-4.17-10.49-13.55-18.93-39.59-36.19-65.12-43.12-17.56-4.78-42.52-5-56.22-.6-3.22,1.16-6.17,1.7-6.5,1.45C291.5,37.24,290.74,35.26,290.2,33.23Z"/></g></g></svg>