<svg xmlns="http://www.w3.org/2000/svg" viewBox="0 0 500 400"><defs><style>.cls-1,.cls-2,.cls-5,.cls-7{fill:#ff8e20;}.cls-2,.cls-5,.cls-7{stroke:#f6f6f6;}.cls-2{stroke-linecap:round;stroke-linejoin:round;}.cls-2,.cls-5{stroke-width:11px;}.cls-3{font-size:50px;}.cls-3,.cls-4,.cls-6{fill:#f6f6f6;}.cls-3,.cls-4{font-family:TwCenMT-CondensedExtraBold, Tw Cen MT Condensed Extra Bold;font-weight:800;}.cls-4{font-size:71.55px;}.cls-5,.cls-7{stroke-miterlimit:10;}.cls-7{stroke-width:4px;}</style></defs><g id="Capa_2" data-name="Capa 2"><g id="Capa_2-2" data-name="Capa 2"><rect class="cls-1" width="500" height="400"/><rect class="cls-2" x="150.46" y="69.07" width="123.19" height="89.82" rx="12.36"/><rect class="cls-2" x="257.03" y="90.17" width="133.6" height="101.29" rx="23.82"/><path class="cls-2" d="M310.25,151.23h-101a11.09,11.09,0,0,0-11.1,11.09v68.55a11.1,11.1,0,0,0,11.1,11.1h15.49v27.56a2.12,2.12,0,0,0,3.57,1.55L259.41,242h50.84a11.09,11.09,0,0,0,11.09-11.1V162.32A11.08,11.08,0,0,0,310.25,151.23Z"/><text class="cls-3" transform="translate(274.55 142.81)">PQRS</text><text class="cls-4" transform="translate(179.77 120.18)">...</text><text class="cls-3" transform="translate(250.17 215.57)">?</text><circle class="cls-5" cx="344.64" cy="237.38" r="60.9"/><path class="cls-6" d="M343.08,208.05a4.53,4.53,0,0,0-3.19,3.42c-.17.83-.17,32.43,0,33.25a4.43,4.43,0,0,0,2.52,3.17l.74.35h31.76l.75-.35a4.44,4.44,0,0,0,2.53-3.24,4.39,4.39,0,0,0-2.48-4.59l-.69-.33-13.15,0-13.16,0,0-14.19,0-14.17-.27-.65a5,5,0,0,0-2.26-2.33A4.92,4.92,0,0,0,343.08,208.05Z"/><path class="cls-7" d="M83.87,258.28c-2,.67-3.78,1.26-3.87,1.25-1,.29,3.64,14.23,6.76,20.24,13,25.61,34.31,46.07,60.9,58.69,13.35,6.32,23.69,9.16,40.68,11.07,11.22,1.33,15.64,2.26,18,3.65A9.43,9.43,0,0,0,221,346.06c1-8.25-9.1-13.27-15.7-7.71-2.69,2.3-3.93,2.56-11.05,2.31-23.26-.84-52-13-71.91-30.49-13.68-12-27.64-32.68-31.53-46.54-.82-3.32-2-6.08-2.39-6.22S85.86,257.61,83.87,258.28Z"/></g></g></svg>